<svg xmlns="http://www.w3.org/2000/svg" preserveAspectRatio="none" width="1135" height="2.216"><path d="M1134.944 1.4V.6c-2.7 0-4.865.5-7.567.6-2.973.1-6.486-.4-9.459-.5-5.405-.2-11.351 0-16.756 0h-33.242c-2.7 0-5.135 0-7.838.1-2.432.1-4.865 0-7.567 0-4.865.1-9.729 0-14.864 0-5.676 0-11.351-.2-17.3-.1-2.7.1-5.675 0-8.378 0-3.243 0-6.216.1-9.189.1-5.4 0-10.54-.2-15.67-.2-2.432 0-4.865-.1-7.3-.1-2.973.1-5.946.1-8.919.1-6.216 0-12.432-.1-18.648-.1-2.7 0-5.135-.1-7.838-.1s-5.676.1-8.378.1c-4.865 0-9.459-.1-14.324-.1-2.432 0-4.865.1-7.3-.1-1.081-.1-2.162-.1-3.513-.1-1.622.1-3.243 0-4.595 0-5.946 0-11.891-.2-17.567 0s-11.351-.1-17.3-.1c-12.152.1-24.588.1-36.746.2-12.7.1-25.4-.2-37.837-.1-5.135 0-10.27-.2-15.4-.1-5.946.1-11.621.1-17.567.2-12.7.2-25.675-.1-38.377-.1-13.247 0-26.22-.1-39.461-.1-12.7 0-25.675.2-38.377.1-12.163 0-24.323-.1-36.487-.1-11.621 0-23.513-.1-35.134-.1-22.7.1-45.4 0-68.106.1-23.513.1-47.3-.1-70.808 0h-7.838c-3.513 0 .27.4 1.351.7a42.1 42.1 0 01-5.946-.4c.541 0 1.081-.1 1.622-.1-8.377-.3-17.296-.3-25.677-.1-7.3.1-14.324 0-21.621 0-3.513 0-7.3.1-10.81.1-3.243 0-6.486-.1-10-.1-6.756 0-13.513.1-20.27.1h-30.81c-1.892 0-3.513.2-5.405.3-1.622 0-2.973-.3-4.865-.3h-20c-1.892 0-3.784 0-5.675.1a7.337 7.337 0 01-2.162-.1c-1.622-.1-3.784 0-5.946.1-3.513.1-7.027.1-10.54.1s-7.027.1-10.54.1a58.889 58.889 0 00-5.946 0 4.37 4.37 0 01-1.081.3c-.811.1-1.081-.2-1.892-.3a35.244 35.244 0 00-4.594-.1h-6.216c-3.784 0-7.838-.1-11.892 0-7.838.2-15.675 0-23.513 0-3.513 0-7.027.1-10.54.1h-5.135a29.478 29.478 0 00-2.973 0 11.912 11.912 0 01-1.622.5 31.21 31.21 0 01-4.594-.5c-1.351-.1-2.7 0-4.054 0a59.486 59.486 0 00-7.3.4c-.27 0-.27.2-1.081.2a19.186 19.186 0 01-3.243-.2c-2.7-.2-5.135-.4-7.838-.4q-5.668 0-11.342.3c-3.784.2-7.3-.2-11.081-.3-3.513-.1-7.027.3-10.81.1C101.197.6 97.414.3 93.36.4c-4.865.1-9.729.3-14.324.5-2.162.1-4.592.3-6.756.2-1.892-.1-3.514-.5-5.406-.5s-3.784.2-5.946.2c-1.891 0-3.513-.2-5.405-.2s-3.779.3-5.679.3-4.05-.1-6.212-.2C41.2.6 39.037.6 36.605.6c-1.351 0-1.351-.1-2.161.2a3.678 3.678 0 01-1.351.5A18.111 18.111 0 0130.93.6a38.377 38.377 0 00-4.865-.1c-4.595 0-8.921.2-13.513 0-2.433-.1-4.595 0-6.757 0A35.913 35.913 0 01.12.7c0 .2-.27 1 0 1.1.541.3 5.135 0 6.216 0H21.47c10.81.1 21.621.1 32.431.1h85.943c4.865 0 10 .2 14.864.1 2.162 0 4.054-.4 6.216-.2 2.162.1 4.324.1 6.486.1h5.946c2.432 0 4.594-.2 7.027-.3 2.432 0 4.594.3 7.027.3h8.108c5.405 0 10.54-.1 15.675-.3 5.675-.2 11.081.2 16.486.2 1.622 0 3.513-.5 5.135-.4.811 0 1.351.3 2.162.3 1.081.1 2.7 0 3.784 0 4.865 0 10.27.4 14.594-.1a24.483 24.483 0 014.59.2h6.216c10.54 0 21.08-.1 31.621-.1 7.567 0 15.135-.2 22.7 0 6.486.2 12.7-.2 19.189 0 7.838.2 15.945 0 24.053 0 5.135 0 10.54-.1 15.675-.2s10.27.2 15.135.2c2.7 0 5.135-.1 7.838-.1 1.351 0 2.7-.1 4.324-.1 1.351 0 2.7.2 4.054.1 4.324-.1 8.919-.2 13.513-.2 9.189.2 18.378 0 27.837 0 21.08 0 42.431 0 63.511-.1h47.836c16.756 0 33.512-.4 50.269 0 2.162 0 4.054.1 6.216 0 2.432-.1 4.865.1 7.3.1 5.135-.1 10-.1 15.135-.1 10 0 20 .1 30 .1 7.3 0 14.594.1 21.891 0 10.27-.2 20.54.3 31.08.2 8.919-.1 17.837.1 26.756.1 2.432 0 5.135-.1 7.567-.1 2.7 0 5.676.1 8.378.1 5.676 0 11.081 0 16.756-.1 8.378-.1 17.026.2 25.4 0 3.784-.1 7.838-.6 11.621-.6 4.865 0 9.729.6 14.594.6 6.757-.1 13.783.1 20.81 0 4.054-.1 8.108-.4 12.162-.5 1.081 0 2.7-.2 3.784-.1a16.863 16.863 0 012.162.5 40.465 40.465 0 007.027.2c10.54 0 21.08-.3 31.621 0 4.865.1 10 .2 14.594.1 4.324-.1 8.378 0 12.7 0h16.486c4.595 0 9.459 0 14.054.1 2.162.1 4.595 0 6.757 0 2.432 0 4.594.1 7.027.1 4.594 0 8.919-.1 13.513 0 21.351.2 42.431.1 63.782.1 21.621-.1 43.242.1 64.863 0 2.7 0 5.135 0 7.838-.2.811 0 1.622 0 1.351-.4-.27-.3-1.081-.1-1.892-.1a20.984 20.984 0 00-4.324.3 20.772 20.772 0 01-3.78.5c1.622-1.3 7.027-1 10-.8zm-1030.5-.1a12.149 12.149 0 01-1.9-.2c.815 0 1.9-.2 1.9.2zM244.706.9c.27.2-1.892 0-2.162.1 0 .1-.27.6 0 .7-1.081 0-1.081-.7-2.432-.6a10.693 10.693 0 01-1.351.3c-.541 0-1.081-.4-1.892-.5 1.622-.1 2.7-.7 4.324-.8s2.973.5 4.594.6c-.811 0-1.622.1-2.432.1a5.03 5.03 0 001.351.1zm708.9.5c-3.243 0-6.216-.4-9.459-.5 2.162-.1 4.594 0 6.486 0 2.162.1 4.324-.1 6.486-.1h5.946a5.758 5.758 0 013.513.7c-4.054.1-8.378-.1-12.973-.1zm22.972.3c-1.081-.1-.541-.6-1.351-.6a35.913 35.913 0 015.675-.2c-1.358.2-2.707.6-4.329.8zm35.4.1c-2.7 0-5.405-.3-8.108-.4-3.243-.2-6.486-.1-9.459-.1-4.865 0-9.729.5-14.594.4l3.243-.6a26.368 26.368 0 014.864-.1c3.243 0 7.567.2 10.27.2h2.973c.27 0 .811-.1 1.081-.1.541-.1.811-.1 1.081.1 1.892.1 3.784 0 5.676 0h6.486a48.906 48.906 0 015.675.2c-3.513-.1-6.216.4-9.189.4zm28.918-.1a15.969 15.969 0 014.324-.5c1.081.2 1.892.7 3.243 1a64.1 64.1 0 01-7.567-.5zm68.106.5c-5.135 0-10-.8-15.135-.8h-4.594c-1.081 0-2.432-.2-3.513-.1-.811.1-2.162.7-2.7.7-.811-.1 0-.6-.541-.7.541 0 4.594.1 2.162-.2 1.892 0 2.432-.1 4.054-.1-.27 0-.541.1-1.081.1 4.594 0 9.189.1 13.783.1 1.351 0 4.594-.2 5.676.1.541.1 1.892.7 1.892.9z" fill="#e6262c"/></svg>